# xmcd
#
# Track frame offsets: 
#        150
#        16391
#        41208
#        55449
#        72873
#        84461
#        101717
#        114519
#        128512
#        144605
#        168799
#        185577
#
# Disc length: 2705 seconds
#
# Revision: 0
# Processed by: cddbd v1.5.2PL0 Copyright (c) Steve Scherf et al.
# Submitted via: ExactAudioCopy v0.99pb1
#
DISCID=a40a8f0c
DTITLE=Sunday Skifflers - Roots (45 Years)
DYEAR=2006
DGENRE=Bluegrass
TTITLE0=I Was Born 10'000 Years Ago
TTITLE1=Hand Me Down My Walking Cane
TTITLE2=North To Alaska
TTITLE3=Ring, Ring, I've Got To Sing
TTITLE4=Bring A Little Water Sylvie
TTITLE5=Pay Me My Money Down
TTITLE6=Puttin' On The Style
TTITLE7=Steamboat Bill
TTITLE8=Times Are Getting Hard Boys
TTITLE9=Worried Man Blues
TTITLE10=Tom Dooley
TTITLE11=Sunday Skifflers Never Die
EXTD=
EXTT0=
EXTT1=
EXTT2=
EXTT3=
EXTT4=
EXTT5=
EXTT6=
EXTT7=
EXTT8=
EXTT9=
EXTT10=
EXTT11=
PLAYORDER=
